<?xml version="1.0" encoding="UTF-8"?>
<!DOCTYPE svg PUBLIC "-//W3C//DTD SVG 1.1//EN" "http://www.w3.org/Graphics/SVG/1.1/DTD/svg11.dtd">
<!-- Creator: CorelDRAW X8 -->
<svg xmlns="http://www.w3.org/2000/svg" xml:space="preserve" width="54.759mm" height="24.1851mm" version="1.1" style="shape-rendering:geometricPrecision; text-rendering:geometricPrecision; image-rendering:optimizeQuality; fill-rule:evenodd; clip-rule:evenodd"
viewBox="0 0 5476 2419"
 xmlns:xlink="http://www.w3.org/1999/xlink">
 <defs>
  <style type="text/css">
   <![CDATA[
    .fil2 {fill:#FEFEFE}
    .fil0 {fill:#FFCC29}
    .fil3 {fill:#A8CF45}
    .fil1 {fill:#FEFEFE;fill-rule:nonzero}
   ]]>
  </style>
 </defs>
 <g id="Camada_x0020_1">
  <metadata id="CorelCorpID_0Corel-Layer"/>
  <path class="fil0" d="M1264 618c21,3 41,7 61,11l158 -202 237 -306 -132 364 -70 230c7,-1 -3,-2 0,1l-224 379 -16 201c-31,5 -46,31 -52,45l-517 69c-79,9 -221,6 -324,8l-385 40 354 -156 279 -123c0,-11 1,-21 1,-31l-161 -47 -199 -58 207 -6 172 -5c2,-8 4,-16 6,-23l-241 -192 -304 -240 363 135 286 107c7,-9 14,-17 22,-26l-81 -144 -102 -181 153 141 117 108c9,-6 19,-13 29,-19l-41 -314 -49 -384 165 350 128 272c17,-3 35,-5 53,-6l44 -135 64 -197 -1 207 0 127z"/>
  <path class="fil1" d="M2491 533c213,0 390,75 531,225 127,136 191,298 191,485 0,188 -68,352 -202,493 -135,140 -308,210 -520,210 -213,0 -386,-70 -521,-210 -135,-141 -202,-305 -202,-493 0,-186 63,-347 191,-484 140,-151 318,-226 532,-226zm0 169c-148,0 -275,53 -381,160 -107,106 -160,234 -160,385 0,97 24,188 73,272 48,84 114,148 196,194 83,46 173,69 272,69 98,0 189,-23 272,-69 82,-46 148,-110 196,-194 48,-84 73,-175 73,-272 0,-151 -54,-279 -161,-385 -106,-107 -233,-160 -380,-160zm781 -135l177 0 0 247c71,-93 152,-164 244,-211 92,-47 194,-70 308,-70 197,0 366,69 506,206 140,138 210,303 210,497 0,197 -69,365 -208,503 -139,138 -307,207 -504,207 -110,0 -212,-22 -304,-67 -93,-44 -177,-110 -252,-199l0 723 -177 0 0 -1836zm715 133c-155,0 -285,52 -391,157 -107,104 -159,234 -159,390 0,102 23,194 70,275 48,82 115,147 203,194 88,48 181,72 279,72 96,0 187,-24 271,-72 85,-49 152,-116 202,-202 51,-87 75,-177 75,-272 0,-95 -24,-186 -74,-272 -50,-86 -117,-152 -201,-199 -84,-48 -176,-71 -275,-71zm1488 14l-115 116c-96,-90 -189,-135 -280,-135 -58,0 -107,18 -148,55 -42,37 -62,81 -62,130 0,44 17,85 51,125 34,40 105,88 214,142 133,67 223,131 270,193 47,62 71,133 71,211 0,110 -40,204 -120,280 -80,77 -180,115 -300,115 -80,0 -156,-17 -229,-50 -73,-34 -133,-81 -180,-140l112 -124c91,100 187,150 289,150 72,0 133,-22 183,-67 50,-44 75,-97 75,-157 0,-49 -16,-93 -50,-132 -33,-38 -108,-86 -224,-143 -125,-63 -210,-125 -255,-186 -45,-60 -68,-130 -68,-208 0,-102 36,-187 108,-255 72,-67 163,-101 272,-101 128,0 256,60 386,181z"/>
  <path class="fil2" d="M1446 1366l408 -983 -16 -44 -44 16 -453 766 -13 204c-20,6 -38,17 -52,35 -8,10 -14,21 -17,32l-1060 141 -30 35 35 30 890 9 199 -99c24,20 55,27 83,22l615 781 46 9 8 -46 -402 -711 -180 -120c4,-26 -1,-54 -17,-77z"/>
  <path class="fil3" d="M1633 1916c0,0 -170,32 -359,-104 -144,-84 -190,-35 -329,39 -198,92 -359,-42 -462,-221l0 0 -36 2c5,11 10,23 16,35 85,167 340,406 907,336 0,0 -268,98 -535,7 279,170 621,98 798,-94z"/>
  <path class="fil1" d="M3743 2177l-40 34c-14,-19 -29,-28 -44,-28 -7,0 -13,2 -17,5 -5,4 -7,8 -7,13 0,4 2,9 5,13 4,5 18,17 40,34 21,17 33,27 38,32 11,10 19,20 23,30 5,10 7,20 7,32 0,22 -8,40 -24,55 -16,14 -38,22 -64,22 -20,0 -38,-5 -53,-15 -15,-9 -28,-24 -39,-44l46 -26c14,23 29,35 47,35 10,0 18,-2 24,-7 6,-5 10,-11 10,-18 0,-6 -3,-12 -8,-19 -4,-6 -15,-15 -31,-28 -32,-24 -52,-43 -61,-56 -9,-13 -14,-26 -14,-39 0,-19 8,-35 23,-48 15,-14 34,-20 56,-20 15,0 28,3 41,9 13,6 27,18 42,34zm193 -43c41,0 76,13 105,41 29,28 44,62 44,102 0,39 -14,73 -43,100 -29,28 -64,42 -105,42 -43,0 -79,-15 -108,-43 -28,-28 -42,-61 -42,-100 0,-26 6,-50 20,-72 13,-21 31,-39 54,-51 24,-13 49,-19 75,-19zm0 50c-27,0 -49,9 -67,26 -18,18 -27,40 -27,67 0,30 11,54 34,71 18,14 38,21 61,21 26,0 48,-9 66,-27 18,-18 27,-40 27,-65 0,-26 -9,-48 -27,-66 -19,-18 -41,-27 -67,-27zm201 -44l54 0 0 222 80 0 0 50 -134 0 0 -272zm174 0l55 0 0 176c0,15 1,26 4,32 3,6 7,11 14,15 6,4 14,6 23,6 10,0 18,-2 25,-7 7,-4 12,-9 14,-16 3,-6 4,-18 4,-36l0 -170 55 0 0 162c0,27 -1,46 -5,57 -3,11 -9,21 -18,31 -10,9 -20,17 -32,21 -12,5 -26,8 -42,8 -21,0 -39,-5 -54,-14 -16,-9 -27,-20 -33,-34 -7,-14 -10,-37 -10,-69l0 -162zm229 0l159 0 0 51 -52 0 0 221 -56 0 0 -221 -51 0 0 -51zm193 0l54 0 0 272 -54 0 0 -272zm251 -6c41,0 76,13 105,41 29,28 44,62 44,102 0,39 -14,73 -43,100 -29,28 -64,42 -105,42 -43,0 -79,-15 -108,-43 -28,-28 -42,-61 -42,-100 0,-26 6,-50 20,-72 13,-21 31,-39 54,-51 23,-13 49,-19 75,-19zm0 50c-27,0 -49,9 -67,26 -18,18 -27,40 -27,67 0,30 11,54 34,71 18,14 38,21 61,21 26,0 48,-9 66,-27 18,-18 27,-40 27,-65 0,-26 -9,-48 -27,-66 -19,-18 -41,-27 -67,-27zm201 -44l52 0 123 179 0 -179 55 0 0 272 -53 0 -123 -178 0 178 -54 0 0 -272z"/>
 </g>
</svg>
